<?xml version="1.0" encoding="iso-8859-1"?>
<!-- Generator: Adobe Illustrator 19.0.0, SVG Export Plug-In . SVG Version: 6.00 Build 0)  -->
<svg version="1.1" id="Capa_1" xmlns="http://www.w3.org/2000/svg" xmlns:xlink="http://www.w3.org/1999/xlink" x="0px" y="0px"
	 viewBox="0 0 512 512" style="enable-background:new 0 0 512 512;" xml:space="preserve">
<g>
	<g>
		<path d="M497.231,184.615h-68.923v-4.923c0-16.78-7.672-31.801-19.692-41.743V36.923c0-8.157-6.613-14.769-14.769-14.769h-39.385
			c-8.157,0-14.769,6.613-14.769,14.769V137.95C327.672,147.89,320,162.912,320,179.692v4.923H192v-4.923
			c0-16.78-7.672-31.801-19.692-41.743V36.923c0-8.157-6.613-14.769-14.769-14.769h-39.385c-8.157,0-14.769,6.613-14.769,14.769
			V137.95c-12.02,9.941-19.692,24.962-19.692,41.743v4.923H14.769C6.613,184.615,0,191.228,0,199.385v275.692
			c0,8.157,6.613,14.769,14.769,14.769h482.462c8.157,0,14.769-6.613,14.769-14.769V199.385
			C512,191.228,505.387,184.615,497.231,184.615z M369.231,51.692h9.846v74.072c-0.39-0.035-0.782-0.053-1.172-0.081
			c-0.379-0.027-0.756-0.06-1.138-0.078c-0.869-0.042-1.741-0.066-2.613-0.066c-0.872,0-1.744,0.025-2.613,0.066
			c-0.381,0.019-0.758,0.052-1.138,0.078c-0.39,0.027-0.782,0.044-1.172,0.081V51.692z M349.536,179.692h0.002
			c0-9.181,5.055-17.197,12.524-21.428c0.337-0.191,0.677-0.373,1.022-0.547c0.09-0.045,0.178-0.094,0.268-0.138
			c0.448-0.22,0.901-0.425,1.361-0.616c0.042-0.018,0.085-0.033,0.127-0.05c0.424-0.174,0.854-0.335,1.287-0.484
			c0.082-0.029,0.163-0.056,0.245-0.083c0.449-0.15,0.901-0.288,1.358-0.412c0.025-0.007,0.048-0.014,0.073-0.021
			c0.981-0.262,1.979-0.46,2.987-0.599c0.112-0.016,0.224-0.03,0.337-0.042c0.386-0.048,0.773-0.086,1.162-0.115
			c0.126-0.01,0.252-0.022,0.379-0.029c0.494-0.031,0.989-0.049,1.485-0.049c0.496,0,0.992,0.019,1.485,0.049
			c0.127,0.008,0.253,0.02,0.379,0.029c0.388,0.03,0.776,0.067,1.162,0.115c0.112,0.014,0.224,0.028,0.337,0.042
			c1.008,0.14,2.006,0.337,2.987,0.599c0.025,0.007,0.048,0.014,0.073,0.021c0.457,0.123,0.909,0.262,1.358,0.412
			c0.082,0.028,0.163,0.055,0.245,0.083c0.433,0.15,0.863,0.311,1.287,0.484c0.042,0.018,0.085,0.033,0.127,0.05
			c0.46,0.191,0.913,0.398,1.361,0.616c0.091,0.044,0.178,0.093,0.268,0.138c0.345,0.174,0.685,0.356,1.022,0.547
			c7.469,4.231,12.524,12.249,12.524,21.428v4.923h-49.231V179.692z M132.923,51.692h9.846v74.072
			c-0.39-0.035-0.782-0.053-1.172-0.081c-0.379-0.027-0.756-0.06-1.138-0.078c-0.869-0.042-1.741-0.066-2.613-0.066
			s-1.744,0.025-2.613,0.066c-0.381,0.019-0.758,0.052-1.138,0.078c-0.39,0.027-0.782,0.044-1.172,0.081V51.692z M113.229,179.692
			h0.002c0-9.181,5.055-17.197,12.524-21.428c0.337-0.191,0.677-0.373,1.022-0.547c0.09-0.045,0.178-0.094,0.268-0.138
			c0.448-0.22,0.901-0.425,1.361-0.616c0.042-0.018,0.085-0.033,0.127-0.05c0.424-0.174,0.854-0.335,1.287-0.484
			c0.082-0.029,0.163-0.056,0.245-0.083c0.449-0.15,0.901-0.288,1.358-0.412c0.025-0.007,0.048-0.014,0.073-0.021
			c0.981-0.262,1.979-0.46,2.987-0.599c0.112-0.016,0.224-0.03,0.337-0.042c0.386-0.048,0.773-0.086,1.162-0.115
			c0.126-0.01,0.252-0.022,0.379-0.029c0.494-0.031,0.989-0.049,1.485-0.049c0.496,0,0.992,0.019,1.485,0.049
			c0.127,0.008,0.253,0.02,0.379,0.029c0.388,0.03,0.776,0.067,1.162,0.115c0.112,0.014,0.224,0.028,0.337,0.042
			c1.008,0.14,2.006,0.337,2.987,0.599c0.025,0.007,0.048,0.014,0.073,0.021c0.457,0.123,0.909,0.262,1.358,0.412
			c0.082,0.028,0.163,0.055,0.245,0.083c0.433,0.15,0.863,0.311,1.287,0.484c0.042,0.018,0.085,0.033,0.127,0.05
			c0.46,0.191,0.913,0.398,1.361,0.616c0.091,0.044,0.178,0.093,0.268,0.138c0.345,0.174,0.685,0.356,1.022,0.547
			c7.469,4.231,12.524,12.249,12.524,21.428v4.923h-49.231V179.692z M482.462,460.308H29.538V214.154h452.923V460.308z"/>
	</g>
</g>
<g>
	<g>
		<path d="M152.615,381.538H98.462V352h44.308c8.157,0,14.769-6.613,14.769-14.769s-6.613-14.769-14.769-14.769H98.462v-29.538
			h54.154c8.157,0,14.769-6.613,14.769-14.769s-6.613-14.769-14.769-14.769H83.692c-8.157,0-14.769,6.613-14.769,14.769v118.154
			c0,8.157,6.613,14.769,14.769,14.769h68.923c8.157,0,14.769-6.613,14.769-14.769S160.772,381.538,152.615,381.538z"/>
	</g>
</g>
<g>
	<g>
		<path d="M428.308,263.385h-68.923c-8.157,0-14.769,6.613-14.769,14.769s6.613,14.769,14.769,14.769h19.692v103.385
			c0,8.157,6.613,14.769,14.769,14.769s14.769-6.613,14.769-14.769V292.923h19.692c8.157,0,14.769-6.613,14.769-14.769
			S436.464,263.385,428.308,263.385z"/>
	</g>
</g>
<g>
	<g>
		<path d="M243.559,337.231l30.12-51.635c4.111-7.046,1.731-16.089-5.315-20.199c-7.047-4.109-16.09-1.73-20.199,5.316
			l-21.704,37.208l-21.704-37.208c-4.11-7.046-13.153-9.425-20.199-5.316c-7.046,4.111-9.426,13.154-5.315,20.199l30.12,51.635
			l-30.12,51.635c-4.11,7.045-1.73,16.089,5.315,20.199c2.34,1.365,4.901,2.015,7.428,2.015c5.082,0,10.026-2.625,12.771-7.33
			l21.704-37.208l21.704,37.208c2.745,4.706,7.69,7.33,12.771,7.33c2.526,0,5.087-0.65,7.428-2.015
			c7.046-4.111,9.426-13.153,5.315-20.199L243.559,337.231z"/>
	</g>
</g>
<g>
	<g>
		<path d="M310.154,263.385c-8.157,0-14.769,6.613-14.769,14.769v117.169c0,8.157,6.613,14.769,14.769,14.769
			s14.769-6.613,14.769-14.769V278.154C324.923,269.997,318.31,263.385,310.154,263.385z"/>
	</g>
</g>
<g>
</g>
<g>
</g>
<g>
</g>
<g>
</g>
<g>
</g>
<g>
</g>
<g>
</g>
<g>
</g>
<g>
</g>
<g>
</g>
<g>
</g>
<g>
</g>
<g>
</g>
<g>
</g>
<g>
</g>
</svg>
